<svg width="35" height="44" viewBox="0 0 35 44" fill="none" xmlns="http://www.w3.org/2000/svg">
<path opacity="0.7" d="M23.4823 16.6364L23.4431 16.597C22.3797 15.5315 20.6521 15.5315 19.5887 16.597L0.79755 35.426C-0.26585 36.4915 -0.26585 38.2226 0.79755 39.2882L0.807366 39.298C7.06016 45.5667 17.2034 45.5667 23.4562 39.298C29.6991 33.0425 29.7089 22.9018 23.4856 16.6331L23.4823 16.6364Z" fill="#5F71FE"/>
<path opacity="0.95" d="M34.1724 8.57477C35.2391 7.50595 35.2391 5.76829 34.1724 4.69947L34.1397 4.66668C27.8836 -1.56593 17.7666 -1.55609 11.5236 4.69947C5.27079 10.9649 5.27079 21.1285 11.5236 27.3939C12.5903 28.4627 14.3244 28.4627 15.3911 27.3939L34.1724 8.57477Z" fill="#5F71FE"/>
</svg>
